<svg width="176" height="143" viewBox="0 0 176 143" fill="none" xmlns="http://www.w3.org/2000/svg">
<g filter="url(#filter0_dd_10_61)">
<mask id="path-1-outside-1_10_61" maskUnits="userSpaceOnUse" x="0" y="0" width="169" height="137" fill="black">
<rect fill="white" width="169" height="137"/>
<path d="M17.7983 76.1454L20.8419 88.4715C20.4495 88.729 19.8065 89.0627 18.9128 89.4726C18.0577 89.8708 17.1868 90.2048 16.3 90.4746C15.4132 90.7445 14.6017 90.8993 13.8654 90.9393C13.1782 91.0103 12.5558 90.9236 11.998 90.6792C11.4787 90.423 11.0189 89.9878 10.6185 89.3734C10.2181 88.759 9.88047 87.8954 9.6057 86.7826L2.13944 56.5451C1.91752 55.6463 1.96049 54.897 2.26836 54.2972C2.60422 53.6428 3.12072 53.0485 3.81787 52.5143C5.00197 51.6019 6.43511 50.7747 8.1173 50.0329C9.78892 49.2482 11.6079 48.5567 13.5743 47.9584C18.895 46.3396 23.2114 46.3607 26.5232 48.0219C29.8351 49.6831 32.0142 52.6322 33.0604 56.8693C33.7156 59.5229 33.6588 61.9789 32.89 64.2375C32.1212 66.496 31.0154 68.3969 29.5725 69.9403C31.4784 71.6151 33.3332 73.1674 35.1371 74.5972C36.941 76.027 38.4135 77.3736 39.5545 78.6369C39.5388 80.2522 39.1108 81.6248 38.2706 82.7547C37.4584 83.8301 36.4161 84.5613 35.1437 84.9484C34.2955 85.2065 33.5365 85.3224 32.8667 85.2961C32.197 85.2698 31.5832 85.1344 31.0255 84.89C30.4677 84.6456 29.9273 84.3038 29.4044 83.8648C28.8814 83.4257 28.3672 82.938 27.8617 82.4015L20.8636 75.2128L17.7983 76.1454ZM19.3336 66.4985C20.7987 66.0527 21.855 65.2942 22.5025 64.2229C23.1393 63.1089 23.257 61.7386 22.8554 60.1123C22.4538 58.4859 21.6707 57.4128 20.506 56.8929C19.3693 56.3184 17.7792 56.3421 15.7357 56.9638C15.1574 57.1398 14.7 57.3019 14.3635 57.4503C14.0271 57.5987 13.6574 57.7802 13.2544 57.9948L15.6322 67.6246L19.3336 66.4985Z"/>
<path d="M37.9529 48.1335C37.4985 46.2931 37.6211 44.6913 38.3208 43.3281C39.0205 41.9649 40.1993 41.031 41.8573 40.5266L60.9426 34.7198C61.3287 35.1085 61.7133 35.6587 62.0963 36.3704C62.5179 37.0704 62.8343 37.8484 63.0457 38.7044C63.4473 40.3307 63.4049 41.586 62.9185 42.4702C62.4707 43.3427 61.7263 43.9373 60.6853 44.2541L48.4822 47.9669L49.9564 53.9373L62.9692 49.9782C63.3553 50.3668 63.7399 50.917 64.1229 51.6288C64.5339 52.286 64.8451 53.0426 65.0564 53.8985C65.458 55.5249 65.4349 56.7743 64.9871 57.6468C64.5393 58.5193 63.7948 59.1139 62.7538 59.4306L52.1123 62.6683L53.7768 69.4092L68.6402 64.8869C69.0263 65.2756 69.4109 65.8258 69.7939 66.5375C70.2155 67.2375 70.5319 68.0155 70.7433 68.8715C71.1449 70.4979 71.1077 71.7745 70.632 72.7016C70.1841 73.574 69.4397 74.1686 68.3987 74.4854L51.5111 79.6235C49.8532 80.1279 48.4102 79.9918 47.1821 79.2151C45.9539 78.4384 45.1127 77.1298 44.6583 75.2895L37.9529 48.1335Z"/>
<path d="M76.6435 31.1851C77.1933 30.5577 78.076 29.852 79.2918 29.068C80.5462 28.2722 81.8481 27.669 83.1976 27.2584C85.1254 26.6719 86.9011 26.4767 88.5248 26.6729C90.1764 26.8146 91.3781 27.4843 92.1298 28.6821C93.3734 30.6964 94.7646 33.057 96.3034 35.7638C97.8423 38.4706 99.4076 41.2844 100.999 44.2052C102.58 47.0831 104.137 49.9456 105.669 52.7925C107.19 55.5966 108.531 58.0877 109.691 60.2656C109.376 61.0056 108.798 61.6875 107.957 62.3115C107.127 62.9782 106.076 63.5051 104.803 63.8923C103.878 64.1738 103.067 64.3287 102.369 64.3569C101.71 64.3734 101.126 64.275 100.617 64.0616C100.147 63.8365 99.7082 63.4869 99.301 63.0126C98.9323 62.5266 98.5617 61.9491 98.1892 61.2802L96.0544 57.1672L85.5864 60.3522C85.595 61.73 85.6142 63.1506 85.6439 64.614C85.6736 66.0774 85.6928 67.498 85.7014 68.8759C85.2144 69.2541 84.6783 69.6012 84.0931 69.9173C83.5571 70.2645 82.8649 70.5671 82.0167 70.8252C80.0503 71.4235 78.4954 71.5055 77.3518 71.0711C76.2362 70.5823 75.5146 69.6745 75.187 68.3477C75.0391 67.7485 74.9682 67.1259 74.9745 66.4798C74.9808 65.8337 74.9799 65.0747 74.9719 64.2029C74.9565 62.9652 74.9687 61.42 75.0087 59.5672C75.0872 57.7028 75.1726 55.6982 75.2648 53.5535C75.3464 51.366 75.4561 49.1239 75.5937 46.8273C75.7313 44.5307 75.8621 42.3743 75.986 40.358C76.0994 38.2989 76.2077 36.4713 76.3111 34.8754C76.453 33.2677 76.5638 32.0376 76.6435 31.1851ZM85.6285 37.3552C85.5326 39.317 85.4124 41.5162 85.2679 43.9529C85.1514 46.3351 85.1033 48.7425 85.1236 51.1751L92.2951 48.9931C91.1846 46.8462 90.0707 44.7694 88.9534 42.7626C87.8641 40.7013 86.8715 38.8636 85.9755 37.2496L85.6285 37.3552Z"/>
<path d="M124.397 23.8342C121.428 24.7375 119.402 26.4354 118.317 28.9279C117.233 31.4205 117.146 34.5071 118.055 38.1878C118.974 41.9113 120.55 44.5149 122.781 45.9986C125.052 47.4705 127.671 47.7548 130.64 46.8515C132.221 46.3706 133.493 45.7305 134.456 44.9312C135.458 44.1202 136.386 43.2626 137.241 42.3584C138.044 42.7582 138.725 43.3333 139.283 44.0837C139.87 44.7796 140.3 45.6839 140.575 46.7967C141.008 48.5514 140.491 50.3192 139.024 52.1C137.585 53.8263 135.073 55.2349 131.487 56.3258C128.904 57.1118 126.374 57.4443 123.899 57.3232C121.423 57.2021 119.131 56.5651 117.022 55.4121C114.903 54.2163 113.025 52.4869 111.389 50.224C109.78 47.9065 108.532 44.9502 107.644 41.3551C106.82 38.0168 106.559 34.9443 106.861 32.1376C107.191 29.2764 107.948 26.7221 109.135 24.4746C110.359 22.2154 111.959 20.3021 113.935 18.7347C115.911 17.1672 118.152 16.0023 120.658 15.2397C124.205 14.1605 127.101 13.9696 129.346 14.667C131.629 15.3527 133.02 16.7014 133.516 18.7129C133.791 19.8257 133.778 20.8649 133.478 21.8306C133.177 22.7963 132.757 23.6142 132.218 24.2844C131.036 23.8619 129.803 23.5697 128.52 23.4081C127.275 23.2347 125.901 23.3767 124.397 23.8342Z"/>
<path d="M139.023 20.6266C138.637 20.2379 138.228 19.6722 137.795 18.9294C137.363 18.1866 137.036 17.3658 136.814 16.467C136.402 14.7979 136.434 13.4998 136.91 12.5728C137.424 11.6341 138.221 11.0005 139.301 10.672L164.516 3C164.903 3.38867 165.312 3.95441 165.744 4.6972C166.176 5.44 166.503 6.26079 166.725 7.15957C167.137 8.82873 167.086 10.1327 166.572 11.0714C166.096 11.9984 165.318 12.6262 164.239 12.9546L157.819 14.9078L165.143 44.5675C164.75 44.825 164.107 45.1587 163.214 45.5686C162.358 45.9668 161.487 46.3008 160.601 46.5706C159.714 46.8404 158.902 46.9953 158.166 47.0353C157.479 47.1063 156.856 47.0196 156.299 46.7752C155.741 46.5308 155.262 46.1014 154.861 45.487C154.461 44.8726 154.123 44.009 153.849 42.8962L147.698 17.9872L139.023 20.6266Z"/>
<path d="M36.2553 114.842C35.431 111.503 35.1645 108.409 35.4558 105.56C35.7856 102.699 36.5488 100.166 37.7455 97.9611C38.9701 95.702 40.5703 93.7887 42.5461 92.2212C44.5604 90.642 46.8592 89.4595 49.4425 88.6735C52.0257 87.8875 54.5272 87.6096 56.9468 87.8397C59.405 88.0581 61.6797 88.7925 63.7709 90.0428C65.8515 91.2503 67.6716 92.9973 69.231 95.2837C70.829 97.5584 72.0401 100.365 72.8644 103.703C73.9001 107.897 74.0885 111.682 73.4297 115.058C72.7603 118.39 71.4364 121.255 69.4581 123.651C70.1104 123.775 70.8644 123.891 71.72 123.999C72.6143 124.095 73.5278 124.185 74.4605 124.269C75.4319 124.342 76.4172 124.387 77.4165 124.405C78.4264 124.466 79.3679 124.502 80.241 124.512C80.343 124.757 80.4151 124.965 80.4574 125.136C80.5102 125.35 80.5577 125.543 80.6 125.714C81.2024 128.154 81.0626 130.106 80.1807 131.571C79.3373 133.024 77.9903 134.032 76.1396 134.595C74.366 135.134 72.3972 135.135 70.2332 134.597C68.0798 134.102 65.7662 133.126 63.2926 131.67L60.0979 129.812L59.6353 129.953C57.0134 130.751 54.4734 131.041 52.0153 130.822C49.5465 130.561 47.2858 129.799 45.2331 128.537C43.1805 127.275 41.3745 125.501 39.815 123.215C38.2556 120.928 37.069 118.137 36.2553 114.842ZM46.6655 111.674C47.6272 115.569 49.0591 118.262 50.9612 119.754C52.8633 121.246 55.0097 121.628 57.4001 120.901C59.8292 120.162 61.5192 118.613 62.4702 116.253C63.4213 113.893 63.4159 110.765 62.4542 106.871C61.5031 103.019 60.0765 100.347 58.1744 98.8548C56.3108 97.3512 54.1645 96.9688 51.7354 97.7079C49.3449 98.4352 47.6549 99.9847 46.6653 102.356C45.7037 104.674 45.7038 107.78 46.6655 111.674Z"/>
<path d="M111.093 97.5937C111.664 99.9048 111.821 102.135 111.564 104.284C111.335 106.378 110.715 108.315 109.703 110.095C108.681 111.833 107.296 113.358 105.548 114.673C103.8 115.987 101.711 117.013 99.2824 117.752C96.8534 118.491 94.5851 118.79 92.4777 118.649C90.3702 118.508 88.4779 117.98 86.8008 117.063C85.1132 116.104 83.6706 114.795 82.4731 113.135C81.3035 111.42 80.4334 109.407 79.8627 107.096L73.8073 82.5718C74.2102 82.3572 74.8586 82.0449 75.7522 81.635C76.6353 81.1822 77.5009 80.8268 78.3492 80.5687C79.236 80.2989 80.0282 80.1499 80.7259 80.1217C81.4517 80.0389 82.0934 80.1198 82.6512 80.3642C83.209 80.6086 83.6881 81.038 84.0885 81.6524C84.4889 82.2668 84.8265 83.1304 85.1013 84.2432L89.9361 103.824C90.4434 105.878 91.3409 107.331 92.6287 108.181C93.9551 109.02 95.4279 109.193 97.0473 108.7C98.7052 108.196 99.8927 107.213 100.61 105.753C101.327 104.292 101.432 102.535 100.925 100.48L94.9168 76.1492C95.3198 75.9345 95.9681 75.6223 96.8617 75.2123C97.7448 74.7596 98.6105 74.4042 99.4587 74.1461C100.345 73.8763 101.138 73.7273 101.835 73.699C102.561 73.6163 103.203 73.6971 103.761 73.9415C104.319 74.186 104.798 74.6154 105.198 75.2298C105.598 75.8442 105.936 76.7077 106.211 77.8205L111.093 97.5937Z"/>
<path d="M132.05 106.402C131.658 106.66 131.015 106.993 130.121 107.403C129.266 107.801 128.395 108.135 127.508 108.405C126.622 108.675 125.81 108.83 125.074 108.87C124.387 108.941 123.764 108.854 123.206 108.61C122.648 108.365 122.169 107.936 121.769 107.322C121.369 106.707 121.031 105.844 120.756 104.731L112.386 70.834C112.789 70.6194 113.438 70.3071 114.331 69.8971C115.214 69.4444 116.08 69.089 116.928 68.8309C117.815 68.5611 118.607 68.4121 119.305 68.3839C120.031 68.3011 120.673 68.3819 121.23 68.6264C121.788 68.8708 122.267 69.3002 122.668 69.9146C123.068 70.529 123.406 71.3926 123.68 72.5053L132.05 106.402Z"/>
<path d="M146.281 70.1845L132.054 74.5132C131.667 74.1245 131.258 73.5588 130.826 72.816C130.394 72.0732 130.067 71.2524 129.845 70.3536C129.433 68.6845 129.465 67.3864 129.941 66.4594C130.455 65.5206 131.252 64.887 132.331 64.5586L153.904 57.9952C155.981 59.0198 157.336 60.816 157.97 63.384C158.234 64.454 158.267 65.5943 158.069 66.8051C157.898 67.9613 157.582 69.1158 157.121 70.2685L148.336 91.8532L163.141 87.3486C163.527 87.7373 163.937 88.303 164.369 89.0458C164.801 89.7886 165.128 90.6094 165.35 91.5082C165.762 93.1773 165.711 94.4813 165.196 95.42C164.721 96.347 163.943 96.9748 162.863 97.3032L140.077 104.236C139.273 103.836 138.533 103.187 137.855 102.289C137.177 101.391 136.675 100.279 136.347 98.952C136.083 97.882 136.064 96.7144 136.29 95.4491C136.517 94.1838 136.861 92.9748 137.322 91.8221L146.281 70.1845Z"/>
</mask>
<path d="M17.7983 76.1454L20.8419 88.4715C20.4495 88.729 19.8065 89.0627 18.9128 89.4726C18.0577 89.8708 17.1868 90.2048 16.3 90.4746C15.4132 90.7445 14.6017 90.8993 13.8654 90.9393C13.1782 91.0103 12.5558 90.9236 11.998 90.6792C11.4787 90.423 11.0189 89.9878 10.6185 89.3734C10.2181 88.759 9.88047 87.8954 9.6057 86.7826L2.13944 56.5451C1.91752 55.6463 1.96049 54.897 2.26836 54.2972C2.60422 53.6428 3.12072 53.0485 3.81787 52.5143C5.00197 51.6019 6.43511 50.7747 8.1173 50.0329C9.78892 49.2482 11.6079 48.5567 13.5743 47.9584C18.895 46.3396 23.2114 46.3607 26.5232 48.0219C29.8351 49.6831 32.0142 52.6322 33.0604 56.8693C33.7156 59.5229 33.6588 61.9789 32.89 64.2375C32.1212 66.496 31.0154 68.3969 29.5725 69.9403C31.4784 71.6151 33.3332 73.1674 35.1371 74.5972C36.941 76.027 38.4135 77.3736 39.5545 78.6369C39.5388 80.2522 39.1108 81.6248 38.2706 82.7547C37.4584 83.8301 36.4161 84.5613 35.1437 84.9484C34.2955 85.2065 33.5365 85.3224 32.8667 85.2961C32.197 85.2698 31.5832 85.1344 31.0255 84.89C30.4677 84.6456 29.9273 84.3038 29.4044 83.8648C28.8814 83.4257 28.3672 82.938 27.8617 82.4015L20.8636 75.2128L17.7983 76.1454ZM19.3336 66.4985C20.7987 66.0527 21.855 65.2942 22.5025 64.2229C23.1393 63.1089 23.257 61.7386 22.8554 60.1123C22.4538 58.4859 21.6707 57.4128 20.506 56.8929C19.3693 56.3184 17.7792 56.3421 15.7357 56.9638C15.1574 57.1398 14.7 57.3019 14.3635 57.4503C14.0271 57.5987 13.6574 57.7802 13.2544 57.9948L15.6322 67.6246L19.3336 66.4985Z" fill="white"/>
<path d="M37.9529 48.1335C37.4985 46.2931 37.6211 44.6913 38.3208 43.3281C39.0205 41.9649 40.1993 41.031 41.8573 40.5266L60.9426 34.7198C61.3287 35.1085 61.7133 35.6587 62.0963 36.3704C62.5179 37.0704 62.8343 37.8484 63.0457 38.7044C63.4473 40.3307 63.4049 41.586 62.9185 42.4702C62.4707 43.3427 61.7263 43.9373 60.6853 44.2541L48.4822 47.9669L49.9564 53.9373L62.9692 49.9782C63.3553 50.3668 63.7399 50.917 64.1229 51.6288C64.5339 52.286 64.8451 53.0426 65.0564 53.8985C65.458 55.5249 65.4349 56.7743 64.9871 57.6468C64.5393 58.5193 63.7948 59.1139 62.7538 59.4306L52.1123 62.6683L53.7768 69.4092L68.6402 64.8869C69.0263 65.2756 69.4109 65.8258 69.7939 66.5375C70.2155 67.2375 70.5319 68.0155 70.7433 68.8715C71.1449 70.4979 71.1077 71.7745 70.632 72.7016C70.1841 73.574 69.4397 74.1686 68.3987 74.4854L51.5111 79.6235C49.8532 80.1279 48.4102 79.9918 47.1821 79.2151C45.9539 78.4384 45.1127 77.1298 44.6583 75.2895L37.9529 48.1335Z" fill="white"/>
<path d="M76.6435 31.1851C77.1933 30.5577 78.076 29.852 79.2918 29.068C80.5462 28.2722 81.8481 27.669 83.1976 27.2584C85.1254 26.6719 86.9011 26.4767 88.5248 26.6729C90.1764 26.8146 91.3781 27.4843 92.1298 28.6821C93.3734 30.6964 94.7646 33.057 96.3034 35.7638C97.8423 38.4706 99.4076 41.2844 100.999 44.2052C102.58 47.0831 104.137 49.9456 105.669 52.7925C107.19 55.5966 108.531 58.0877 109.691 60.2656C109.376 61.0056 108.798 61.6875 107.957 62.3115C107.127 62.9782 106.076 63.5051 104.803 63.8923C103.878 64.1738 103.067 64.3287 102.369 64.3569C101.71 64.3734 101.126 64.275 100.617 64.0616C100.147 63.8365 99.7082 63.4869 99.301 63.0126C98.9323 62.5266 98.5617 61.9491 98.1892 61.2802L96.0544 57.1672L85.5864 60.3522C85.595 61.73 85.6142 63.1506 85.6439 64.614C85.6736 66.0774 85.6928 67.498 85.7014 68.8759C85.2144 69.2541 84.6783 69.6012 84.0931 69.9173C83.5571 70.2645 82.8649 70.5671 82.0167 70.8252C80.0503 71.4235 78.4954 71.5055 77.3518 71.0711C76.2362 70.5823 75.5146 69.6745 75.187 68.3477C75.0391 67.7485 74.9682 67.1259 74.9745 66.4798C74.9808 65.8337 74.9799 65.0747 74.9719 64.2029C74.9565 62.9652 74.9687 61.42 75.0087 59.5672C75.0872 57.7028 75.1726 55.6982 75.2648 53.5535C75.3464 51.366 75.4561 49.1239 75.5937 46.8273C75.7313 44.5307 75.8621 42.3743 75.986 40.358C76.0994 38.2989 76.2077 36.4713 76.3111 34.8754C76.453 33.2677 76.5638 32.0376 76.6435 31.1851ZM85.6285 37.3552C85.5326 39.317 85.4124 41.5162 85.2679 43.9529C85.1514 46.3351 85.1033 48.7425 85.1236 51.1751L92.2951 48.9931C91.1846 46.8462 90.0707 44.7694 88.9534 42.7626C87.8641 40.7013 86.8715 38.8636 85.9755 37.2496L85.6285 37.3552Z" fill="white"/>
<path d="M124.397 23.8342C121.428 24.7375 119.402 26.4354 118.317 28.9279C117.233 31.4205 117.146 34.5071 118.055 38.1878C118.974 41.9113 120.55 44.5149 122.781 45.9986C125.052 47.4705 127.671 47.7548 130.64 46.8515C132.221 46.3706 133.493 45.7305 134.456 44.9312C135.458 44.1202 136.386 43.2626 137.241 42.3584C138.044 42.7582 138.725 43.3333 139.283 44.0837C139.87 44.7796 140.3 45.6839 140.575 46.7967C141.008 48.5514 140.491 50.3192 139.024 52.1C137.585 53.8263 135.073 55.2349 131.487 56.3258C128.904 57.1118 126.374 57.4443 123.899 57.3232C121.423 57.2021 119.131 56.5651 117.022 55.4121C114.903 54.2163 113.025 52.4869 111.389 50.224C109.78 47.9065 108.532 44.9502 107.644 41.3551C106.82 38.0168 106.559 34.9443 106.861 32.1376C107.191 29.2764 107.948 26.7221 109.135 24.4746C110.359 22.2154 111.959 20.3021 113.935 18.7347C115.911 17.1672 118.152 16.0023 120.658 15.2397C124.205 14.1605 127.101 13.9696 129.346 14.667C131.629 15.3527 133.02 16.7014 133.516 18.7129C133.791 19.8257 133.778 20.8649 133.478 21.8306C133.177 22.7963 132.757 23.6142 132.218 24.2844C131.036 23.8619 129.803 23.5697 128.52 23.4081C127.275 23.2347 125.901 23.3767 124.397 23.8342Z" fill="white"/>
<path d="M139.023 20.6266C138.637 20.2379 138.228 19.6722 137.795 18.9294C137.363 18.1866 137.036 17.3658 136.814 16.467C136.402 14.7979 136.434 13.4998 136.91 12.5728C137.424 11.6341 138.221 11.0005 139.301 10.672L164.516 3C164.903 3.38867 165.312 3.95441 165.744 4.6972C166.176 5.44 166.503 6.26079 166.725 7.15957C167.137 8.82873 167.086 10.1327 166.572 11.0714C166.096 11.9984 165.318 12.6262 164.239 12.9546L157.819 14.9078L165.143 44.5675C164.75 44.825 164.107 45.1587 163.214 45.5686C162.358 45.9668 161.487 46.3008 160.601 46.5706C159.714 46.8404 158.902 46.9953 158.166 47.0353C157.479 47.1063 156.856 47.0196 156.299 46.7752C155.741 46.5308 155.262 46.1014 154.861 45.487C154.461 44.8726 154.123 44.009 153.849 42.8962L147.698 17.9872L139.023 20.6266Z" fill="white"/>
<path d="M36.2553 114.842C35.431 111.503 35.1645 108.409 35.4558 105.56C35.7856 102.699 36.5488 100.166 37.7455 97.9611C38.9701 95.702 40.5703 93.7887 42.5461 92.2212C44.5604 90.642 46.8592 89.4595 49.4425 88.6735C52.0257 87.8875 54.5272 87.6096 56.9468 87.8397C59.405 88.0581 61.6797 88.7925 63.7709 90.0428C65.8515 91.2503 67.6716 92.9973 69.231 95.2837C70.829 97.5584 72.0401 100.365 72.8644 103.703C73.9001 107.897 74.0885 111.682 73.4297 115.058C72.7603 118.39 71.4364 121.255 69.4581 123.651C70.1104 123.775 70.8644 123.891 71.72 123.999C72.6143 124.095 73.5278 124.185 74.4605 124.269C75.4319 124.342 76.4172 124.387 77.4165 124.405C78.4264 124.466 79.3679 124.502 80.241 124.512C80.343 124.757 80.4151 124.965 80.4574 125.136C80.5102 125.35 80.5577 125.543 80.6 125.714C81.2024 128.154 81.0626 130.106 80.1807 131.571C79.3373 133.024 77.9903 134.032 76.1396 134.595C74.366 135.134 72.3972 135.135 70.2332 134.597C68.0798 134.102 65.7662 133.126 63.2926 131.67L60.0979 129.812L59.6353 129.953C57.0134 130.751 54.4734 131.041 52.0153 130.822C49.5465 130.561 47.2858 129.799 45.2331 128.537C43.1805 127.275 41.3745 125.501 39.815 123.215C38.2556 120.928 37.069 118.137 36.2553 114.842ZM46.6655 111.674C47.6272 115.569 49.0591 118.262 50.9612 119.754C52.8633 121.246 55.0097 121.628 57.4001 120.901C59.8292 120.162 61.5192 118.613 62.4702 116.253C63.4213 113.893 63.4159 110.765 62.4542 106.871C61.5031 103.019 60.0765 100.347 58.1744 98.8548C56.3108 97.3512 54.1645 96.9688 51.7354 97.7079C49.3449 98.4352 47.6549 99.9847 46.6653 102.356C45.7037 104.674 45.7038 107.78 46.6655 111.674Z" fill="white"/>
<path d="M111.093 97.5937C111.664 99.9048 111.821 102.135 111.564 104.284C111.335 106.378 110.715 108.315 109.703 110.095C108.681 111.833 107.296 113.358 105.548 114.673C103.8 115.987 101.711 117.013 99.2824 117.752C96.8534 118.491 94.5851 118.79 92.4777 118.649C90.3702 118.508 88.4779 117.98 86.8008 117.063C85.1132 116.104 83.6706 114.795 82.4731 113.135C81.3035 111.42 80.4334 109.407 79.8627 107.096L73.8073 82.5718C74.2102 82.3572 74.8586 82.0449 75.7522 81.635C76.6353 81.1822 77.5009 80.8268 78.3492 80.5687C79.236 80.2989 80.0282 80.1499 80.7259 80.1217C81.4517 80.0389 82.0934 80.1198 82.6512 80.3642C83.209 80.6086 83.6881 81.038 84.0885 81.6524C84.4889 82.2668 84.8265 83.1304 85.1013 84.2432L89.9361 103.824C90.4434 105.878 91.3409 107.331 92.6287 108.181C93.9551 109.02 95.4279 109.193 97.0473 108.7C98.7052 108.196 99.8927 107.213 100.61 105.753C101.327 104.292 101.432 102.535 100.925 100.48L94.9168 76.1492C95.3198 75.9345 95.9681 75.6223 96.8617 75.2123C97.7448 74.7596 98.6105 74.4042 99.4587 74.1461C100.345 73.8763 101.138 73.7273 101.835 73.699C102.561 73.6163 103.203 73.6971 103.761 73.9415C104.319 74.186 104.798 74.6154 105.198 75.2298C105.598 75.8442 105.936 76.7077 106.211 77.8205L111.093 97.5937Z" fill="white"/>
<path d="M132.05 106.402C131.658 106.66 131.015 106.993 130.121 107.403C129.266 107.801 128.395 108.135 127.508 108.405C126.622 108.675 125.81 108.83 125.074 108.87C124.387 108.941 123.764 108.854 123.206 108.61C122.648 108.365 122.169 107.936 121.769 107.322C121.369 106.707 121.031 105.844 120.756 104.731L112.386 70.834C112.789 70.6194 113.438 70.3071 114.331 69.8971C115.214 69.4444 116.08 69.089 116.928 68.8309C117.815 68.5611 118.607 68.4121 119.305 68.3839C120.031 68.3011 120.673 68.3819 121.23 68.6264C121.788 68.8708 122.267 69.3002 122.668 69.9146C123.068 70.529 123.406 71.3926 123.68 72.5053L132.05 106.402Z" fill="white"/>
<path d="M146.281 70.1845L132.054 74.5132C131.667 74.1245 131.258 73.5588 130.826 72.816C130.394 72.0732 130.067 71.2524 129.845 70.3536C129.433 68.6845 129.465 67.3864 129.941 66.4594C130.455 65.5206 131.252 64.887 132.331 64.5586L153.904 57.9952C155.981 59.0198 157.336 60.816 157.97 63.384C158.234 64.454 158.267 65.5943 158.069 66.8051C157.898 67.9613 157.582 69.1158 157.121 70.2685L148.336 91.8532L163.141 87.3486C163.527 87.7373 163.937 88.303 164.369 89.0458C164.801 89.7886 165.128 90.6094 165.35 91.5082C165.762 93.1773 165.711 94.4813 165.196 95.42C164.721 96.347 163.943 96.9748 162.863 97.3032L140.077 104.236C139.273 103.836 138.533 103.187 137.855 102.289C137.177 101.391 136.675 100.279 136.347 98.952C136.083 97.882 136.064 96.7144 136.29 95.4491C136.517 94.1838 136.861 92.9748 137.322 91.8221L146.281 70.1845Z" fill="white"/>
<path d="M17.7983 76.1454L20.8419 88.4715C20.4495 88.729 19.8065 89.0627 18.9128 89.4726C18.0577 89.8708 17.1868 90.2048 16.3 90.4746C15.4132 90.7445 14.6017 90.8993 13.8654 90.9393C13.1782 91.0103 12.5558 90.9236 11.998 90.6792C11.4787 90.423 11.0189 89.9878 10.6185 89.3734C10.2181 88.759 9.88047 87.8954 9.6057 86.7826L2.13944 56.5451C1.91752 55.6463 1.96049 54.897 2.26836 54.2972C2.60422 53.6428 3.12072 53.0485 3.81787 52.5143C5.00197 51.6019 6.43511 50.7747 8.1173 50.0329C9.78892 49.2482 11.6079 48.5567 13.5743 47.9584C18.895 46.3396 23.2114 46.3607 26.5232 48.0219C29.8351 49.6831 32.0142 52.6322 33.0604 56.8693C33.7156 59.5229 33.6588 61.9789 32.89 64.2375C32.1212 66.496 31.0154 68.3969 29.5725 69.9403C31.4784 71.6151 33.3332 73.1674 35.1371 74.5972C36.941 76.027 38.4135 77.3736 39.5545 78.6369C39.5388 80.2522 39.1108 81.6248 38.2706 82.7547C37.4584 83.8301 36.4161 84.5613 35.1437 84.9484C34.2955 85.2065 33.5365 85.3224 32.8667 85.2961C32.197 85.2698 31.5832 85.1344 31.0255 84.89C30.4677 84.6456 29.9273 84.3038 29.4044 83.8648C28.8814 83.4257 28.3672 82.938 27.8617 82.4015L20.8636 75.2128L17.7983 76.1454ZM19.3336 66.4985C20.7987 66.0527 21.855 65.2942 22.5025 64.2229C23.1393 63.1089 23.257 61.7386 22.8554 60.1123C22.4538 58.4859 21.6707 57.4128 20.506 56.8929C19.3693 56.3184 17.7792 56.3421 15.7357 56.9638C15.1574 57.1398 14.7 57.3019 14.3635 57.4503C14.0271 57.5987 13.6574 57.7802 13.2544 57.9948L15.6322 67.6246L19.3336 66.4985Z" stroke="black" stroke-width="4" mask="url(#path-1-outside-1_10_61)"/>
<path d="M37.9529 48.1335C37.4985 46.2931 37.6211 44.6913 38.3208 43.3281C39.0205 41.9649 40.1993 41.031 41.8573 40.5266L60.9426 34.7198C61.3287 35.1085 61.7133 35.6587 62.0963 36.3704C62.5179 37.0704 62.8343 37.8484 63.0457 38.7044C63.4473 40.3307 63.4049 41.586 62.9185 42.4702C62.4707 43.3427 61.7263 43.9373 60.6853 44.2541L48.4822 47.9669L49.9564 53.9373L62.9692 49.9782C63.3553 50.3668 63.7399 50.917 64.1229 51.6288C64.5339 52.286 64.8451 53.0426 65.0564 53.8985C65.458 55.5249 65.4349 56.7743 64.9871 57.6468C64.5393 58.5193 63.7948 59.1139 62.7538 59.4306L52.1123 62.6683L53.7768 69.4092L68.6402 64.8869C69.0263 65.2756 69.4109 65.8258 69.7939 66.5375C70.2155 67.2375 70.5319 68.0155 70.7433 68.8715C71.1449 70.4979 71.1077 71.7745 70.632 72.7016C70.1841 73.574 69.4397 74.1686 68.3987 74.4854L51.5111 79.6235C49.8532 80.1279 48.4102 79.9918 47.1821 79.2151C45.9539 78.4384 45.1127 77.1298 44.6583 75.2895L37.9529 48.1335Z" stroke="black" stroke-width="4" mask="url(#path-1-outside-1_10_61)"/>
<path d="M76.6435 31.1851C77.1933 30.5577 78.076 29.852 79.2918 29.068C80.5462 28.2722 81.8481 27.669 83.1976 27.2584C85.1254 26.6719 86.9011 26.4767 88.5248 26.6729C90.1764 26.8146 91.3781 27.4843 92.1298 28.6821C93.3734 30.6964 94.7646 33.057 96.3034 35.7638C97.8423 38.4706 99.4076 41.2844 100.999 44.2052C102.58 47.0831 104.137 49.9456 105.669 52.7925C107.19 55.5966 108.531 58.0877 109.691 60.2656C109.376 61.0056 108.798 61.6875 107.957 62.3115C107.127 62.9782 106.076 63.5051 104.803 63.8923C103.878 64.1738 103.067 64.3287 102.369 64.3569C101.71 64.3734 101.126 64.275 100.617 64.0616C100.147 63.8365 99.7082 63.4869 99.301 63.0126C98.9323 62.5266 98.5617 61.9491 98.1892 61.2802L96.0544 57.1672L85.5864 60.3522C85.595 61.73 85.6142 63.1506 85.6439 64.614C85.6736 66.0774 85.6928 67.498 85.7014 68.8759C85.2144 69.2541 84.6783 69.6012 84.0931 69.9173C83.5571 70.2645 82.8649 70.5671 82.0167 70.8252C80.0503 71.4235 78.4954 71.5055 77.3518 71.0711C76.2362 70.5823 75.5146 69.6745 75.187 68.3477C75.0391 67.7485 74.9682 67.1259 74.9745 66.4798C74.9808 65.8337 74.9799 65.0747 74.9719 64.2029C74.9565 62.9652 74.9687 61.42 75.0087 59.5672C75.0872 57.7028 75.1726 55.6982 75.2648 53.5535C75.3464 51.366 75.4561 49.1239 75.5937 46.8273C75.7313 44.5307 75.8621 42.3743 75.986 40.358C76.0994 38.2989 76.2077 36.4713 76.3111 34.8754C76.453 33.2677 76.5638 32.0376 76.6435 31.1851ZM85.6285 37.3552C85.5326 39.317 85.4124 41.5162 85.2679 43.9529C85.1514 46.3351 85.1033 48.7425 85.1236 51.1751L92.2951 48.9931C91.1846 46.8462 90.0707 44.7694 88.9534 42.7626C87.8641 40.7013 86.8715 38.8636 85.9755 37.2496L85.6285 37.3552Z" stroke="black" stroke-width="4" mask="url(#path-1-outside-1_10_61)"/>
<path d="M124.397 23.8342C121.428 24.7375 119.402 26.4354 118.317 28.9279C117.233 31.4205 117.146 34.5071 118.055 38.1878C118.974 41.9113 120.55 44.5149 122.781 45.9986C125.052 47.4705 127.671 47.7548 130.64 46.8515C132.221 46.3706 133.493 45.7305 134.456 44.9312C135.458 44.1202 136.386 43.2626 137.241 42.3584C138.044 42.7582 138.725 43.3333 139.283 44.0837C139.87 44.7796 140.3 45.6839 140.575 46.7967C141.008 48.5514 140.491 50.3192 139.024 52.1C137.585 53.8263 135.073 55.2349 131.487 56.3258C128.904 57.1118 126.374 57.4443 123.899 57.3232C121.423 57.2021 119.131 56.5651 117.022 55.4121C114.903 54.2163 113.025 52.4869 111.389 50.224C109.78 47.9065 108.532 44.9502 107.644 41.3551C106.82 38.0168 106.559 34.9443 106.861 32.1376C107.191 29.2764 107.948 26.7221 109.135 24.4746C110.359 22.2154 111.959 20.3021 113.935 18.7347C115.911 17.1672 118.152 16.0023 120.658 15.2397C124.205 14.1605 127.101 13.9696 129.346 14.667C131.629 15.3527 133.02 16.7014 133.516 18.7129C133.791 19.8257 133.778 20.8649 133.478 21.8306C133.177 22.7963 132.757 23.6142 132.218 24.2844C131.036 23.8619 129.803 23.5697 128.52 23.4081C127.275 23.2347 125.901 23.3767 124.397 23.8342Z" stroke="black" stroke-width="4" mask="url(#path-1-outside-1_10_61)"/>
<path d="M139.023 20.6266C138.637 20.2379 138.228 19.6722 137.795 18.9294C137.363 18.1866 137.036 17.3658 136.814 16.467C136.402 14.7979 136.434 13.4998 136.91 12.5728C137.424 11.6341 138.221 11.0005 139.301 10.672L164.516 3C164.903 3.38867 165.312 3.95441 165.744 4.6972C166.176 5.44 166.503 6.26079 166.725 7.15957C167.137 8.82873 167.086 10.1327 166.572 11.0714C166.096 11.9984 165.318 12.6262 164.239 12.9546L157.819 14.9078L165.143 44.5675C164.75 44.825 164.107 45.1587 163.214 45.5686C162.358 45.9668 161.487 46.3008 160.601 46.5706C159.714 46.8404 158.902 46.9953 158.166 47.0353C157.479 47.1063 156.856 47.0196 156.299 46.7752C155.741 46.5308 155.262 46.1014 154.861 45.487C154.461 44.8726 154.123 44.009 153.849 42.8962L147.698 17.9872L139.023 20.6266Z" stroke="black" stroke-width="4" mask="url(#path-1-outside-1_10_61)"/>
<path d="M36.2553 114.842C35.431 111.503 35.1645 108.409 35.4558 105.56C35.7856 102.699 36.5488 100.166 37.7455 97.9611C38.9701 95.702 40.5703 93.7887 42.5461 92.2212C44.5604 90.642 46.8592 89.4595 49.4425 88.6735C52.0257 87.8875 54.5272 87.6096 56.9468 87.8397C59.405 88.0581 61.6797 88.7925 63.7709 90.0428C65.8515 91.2503 67.6716 92.9973 69.231 95.2837C70.829 97.5584 72.0401 100.365 72.8644 103.703C73.9001 107.897 74.0885 111.682 73.4297 115.058C72.7603 118.39 71.4364 121.255 69.4581 123.651C70.1104 123.775 70.8644 123.891 71.72 123.999C72.6143 124.095 73.5278 124.185 74.4605 124.269C75.4319 124.342 76.4172 124.387 77.4165 124.405C78.4264 124.466 79.3679 124.502 80.241 124.512C80.343 124.757 80.4151 124.965 80.4574 125.136C80.5102 125.35 80.5577 125.543 80.6 125.714C81.2024 128.154 81.0626 130.106 80.1807 131.571C79.3373 133.024 77.9903 134.032 76.1396 134.595C74.366 135.134 72.3972 135.135 70.2332 134.597C68.0798 134.102 65.7662 133.126 63.2926 131.67L60.0979 129.812L59.6353 129.953C57.0134 130.751 54.4734 131.041 52.0153 130.822C49.5465 130.561 47.2858 129.799 45.2331 128.537C43.1805 127.275 41.3745 125.501 39.815 123.215C38.2556 120.928 37.069 118.137 36.2553 114.842ZM46.6655 111.674C47.6272 115.569 49.0591 118.262 50.9612 119.754C52.8633 121.246 55.0097 121.628 57.4001 120.901C59.8292 120.162 61.5192 118.613 62.4702 116.253C63.4213 113.893 63.4159 110.765 62.4542 106.871C61.5031 103.019 60.0765 100.347 58.1744 98.8548C56.3108 97.3512 54.1645 96.9688 51.7354 97.7079C49.3449 98.4352 47.6549 99.9847 46.6653 102.356C45.7037 104.674 45.7038 107.78 46.6655 111.674Z" stroke="black" stroke-width="4" mask="url(#path-1-outside-1_10_61)"/>
<path d="M111.093 97.5937C111.664 99.9048 111.821 102.135 111.564 104.284C111.335 106.378 110.715 108.315 109.703 110.095C108.681 111.833 107.296 113.358 105.548 114.673C103.8 115.987 101.711 117.013 99.2824 117.752C96.8534 118.491 94.5851 118.79 92.4777 118.649C90.3702 118.508 88.4779 117.98 86.8008 117.063C85.1132 116.104 83.6706 114.795 82.4731 113.135C81.3035 111.42 80.4334 109.407 79.8627 107.096L73.8073 82.5718C74.2102 82.3572 74.8586 82.0449 75.7522 81.635C76.6353 81.1822 77.5009 80.8268 78.3492 80.5687C79.236 80.2989 80.0282 80.1499 80.7259 80.1217C81.4517 80.0389 82.0934 80.1198 82.6512 80.3642C83.209 80.6086 83.6881 81.038 84.0885 81.6524C84.4889 82.2668 84.8265 83.1304 85.1013 84.2432L89.9361 103.824C90.4434 105.878 91.3409 107.331 92.6287 108.181C93.9551 109.02 95.4279 109.193 97.0473 108.7C98.7052 108.196 99.8927 107.213 100.61 105.753C101.327 104.292 101.432 102.535 100.925 100.48L94.9168 76.1492C95.3198 75.9345 95.9681 75.6223 96.8617 75.2123C97.7448 74.7596 98.6105 74.4042 99.4587 74.1461C100.345 73.8763 101.138 73.7273 101.835 73.699C102.561 73.6163 103.203 73.6971 103.761 73.9415C104.319 74.186 104.798 74.6154 105.198 75.2298C105.598 75.8442 105.936 76.7077 106.211 77.8205L111.093 97.5937Z" stroke="black" stroke-width="4" mask="url(#path-1-outside-1_10_61)"/>
<path d="M132.05 106.402C131.658 106.66 131.015 106.993 130.121 107.403C129.266 107.801 128.395 108.135 127.508 108.405C126.622 108.675 125.81 108.83 125.074 108.87C124.387 108.941 123.764 108.854 123.206 108.61C122.648 108.365 122.169 107.936 121.769 107.322C121.369 106.707 121.031 105.844 120.756 104.731L112.386 70.834C112.789 70.6194 113.438 70.3071 114.331 69.8971C115.214 69.4444 116.08 69.089 116.928 68.8309C117.815 68.5611 118.607 68.4121 119.305 68.3839C120.031 68.3011 120.673 68.3819 121.23 68.6264C121.788 68.8708 122.267 69.3002 122.668 69.9146C123.068 70.529 123.406 71.3926 123.68 72.5053L132.05 106.402Z" stroke="black" stroke-width="4" mask="url(#path-1-outside-1_10_61)"/>
<path d="M146.281 70.1845L132.054 74.5132C131.667 74.1245 131.258 73.5588 130.826 72.816C130.394 72.0732 130.067 71.2524 129.845 70.3536C129.433 68.6845 129.465 67.3864 129.941 66.4594C130.455 65.5206 131.252 64.887 132.331 64.5586L153.904 57.9952C155.981 59.0198 157.336 60.816 157.97 63.384C158.234 64.454 158.267 65.5943 158.069 66.8051C157.898 67.9613 157.582 69.1158 157.121 70.2685L148.336 91.8532L163.141 87.3486C163.527 87.7373 163.937 88.303 164.369 89.0458C164.801 89.7886 165.128 90.6094 165.35 91.5082C165.762 93.1773 165.711 94.4813 165.196 95.42C164.721 96.347 163.943 96.9748 162.863 97.3032L140.077 104.236C139.273 103.836 138.533 103.187 137.855 102.289C137.177 101.391 136.675 100.279 136.347 98.952C136.083 97.882 136.064 96.7144 136.29 95.4491C136.517 94.1838 136.861 92.9748 137.322 91.8221L146.281 70.1845Z" stroke="black" stroke-width="4" mask="url(#path-1-outside-1_10_61)"/>
</g>
<defs>
<filter id="filter0_dd_10_61" x="0.000244141" y="0.736053" width="176" height="142.264" filterUnits="userSpaceOnUse" color-interpolation-filters="sRGB">
<feFlood flood-opacity="0" result="BackgroundImageFix"/>
<feColorMatrix in="SourceAlpha" type="matrix" values="0 0 0 0 0 0 0 0 0 0 0 0 0 0 0 0 0 0 127 0" result="hardAlpha"/>
<feOffset dx="4" dy="4"/>
<feComposite in2="hardAlpha" operator="out"/>
<feColorMatrix type="matrix" values="0 0 0 0 0 0 0 0 0 0 0 0 0 0 0 0 0 0 1 0"/>
<feBlend mode="normal" in2="BackgroundImageFix" result="effect1_dropShadow_10_61"/>
<feColorMatrix in="SourceAlpha" type="matrix" values="0 0 0 0 0 0 0 0 0 0 0 0 0 0 0 0 0 0 127 0" result="hardAlpha"/>
<feOffset dx="7" dy="6"/>
<feComposite in2="hardAlpha" operator="out"/>
<feColorMatrix type="matrix" values="0 0 0 0 0 0 0 0 0 0 0 0 0 0 0 0 0 0 0.25 0"/>
<feBlend mode="normal" in2="effect1_dropShadow_10_61" result="effect2_dropShadow_10_61"/>
<feBlend mode="normal" in="SourceGraphic" in2="effect2_dropShadow_10_61" result="shape"/>
</filter>
</defs>
</svg>
